<svg xmlns="http://www.w3.org/2000/svg" viewBox="0 0 156 26" width="156" height="26"><style>tspan { white-space:pre }</style><g ><g ><path fill="#000000" aria-label="LAMBDA"  d="M0.84 0.78L0.84 1.32L3 1.86L3 24.92L0.84 25.46L0.84 26L20.15 26L20.15 19.51L19.07 19.51C19.07 19.51 16.72 21.32 16.72 25.1L8.96 25.1L8.96 1.86L11.13 1.32L11.13 0.78ZM24.3 24.38L26.68 18.61L35.31 18.61L37.15 22.94C37.84 24.56 39.28 26 41.99 26L46.32 26L46.32 25.46L44.51 24.92L34.23 0.42L33.14 0.42L23.22 24.38L20.33 25.46L20.33 26L27.01 26L27.01 25.46ZM30.98 8.24L34.95 17.71L27.04 17.71ZM75.56 0.78C72.49 0.78 71.48 1.86 70.68 3.84L64.66 18.87L56.79 3.84C55.85 2.04 54.62 0.78 51.91 0.78L47.4 0.78L47.4 1.32L49.57 1.86L49.57 24.38L46.68 25.46L46.68 26L53.54 26L53.54 25.46L50.65 24.38L50.65 5.28L61.66 26.36L62.74 26.36L71.22 5.28L71.22 24.92L69.06 25.46L69.06 26L79.35 26L79.35 25.46L77.18 24.92L77.18 1.86L79.35 1.32L79.35 0.78ZM85.12 1.86L85.12 24.92L82.96 25.46L82.96 26L93.42 26C101.73 26 104.61 23.12 104.61 19.15C104.61 12.67 94.87 12.67 94.87 12.67C94.87 12.67 103.35 12.67 103.35 7.08C103.35 3.66 100.46 0.78 92.7 0.78L82.96 0.78L82.96 1.32ZM93.42 13.21C96.31 13.21 98.48 15.37 98.48 19.15C98.48 22.94 96.31 25.1 93.42 25.1L91.08 25.1L91.08 13.21ZM91.08 1.68L92.7 1.68C95.05 1.68 97.21 3.84 97.21 7.08C97.21 10.15 95.05 12.31 92.7 12.31L91.08 12.31ZM107.5 0.78L107.5 1.32L109.67 1.86L109.67 24.92L107.5 25.46L107.5 26L116.71 26C125.37 26 130.06 21.32 130.06 13.39C130.06 5.46 125.37 0.78 116.71 0.78ZM116.71 1.68C120.86 1.68 123.74 4.56 123.74 13.39C123.74 22.22 120.86 25.1 116.71 25.1L115.62 25.1L115.62 1.68ZM133.67 24.38L136.05 18.61L144.68 18.61L146.52 22.94C147.21 24.56 148.65 26 151.36 26L155.69 26L155.69 25.46L153.88 24.92L143.6 0.42L142.51 0.42L132.59 24.38L129.7 25.46L129.7 26L136.38 26L136.38 25.46ZM140.35 8.24L144.32 17.71L136.41 17.71Z" /></g></g></svg>